<?xml version="1.0" standalone="no"?>
<!DOCTYPE svg PUBLIC "-//W3C//DTD SVG 20010904//EN"
 "http://www.w3.org/TR/2001/REC-SVG-20010904/DTD/svg10.dtd">
<svg version="1.0" xmlns="http://www.w3.org/2000/svg"
 width="144.000000pt" height="144.000000pt" viewBox="0 0 144.000000 144.000000"
 preserveAspectRatio="xMidYMid meet">

<g transform="translate(0.000000,144.000000) scale(0.100000,-0.100000)"
fill="#000000" stroke="none">
<path d="M877 1143 c-4 -3 -7 -39 -7 -80 l0 -73 -96 0 c-84 0 -95 -2 -90 -16
3 -9 6 -30 6 -48 0 -30 3 -33 54 -49 69 -22 146 -90 180 -159 25 -50 26 -58
26 -240 l0 -188 48 0 c82 0 80 -4 118 352 19 172 34 321 34 330 0 15 -13 18
-97 20 l-98 3 -3 78 -3 77 -33 0 c-18 0 -36 -3 -39 -7z"/>
<path d="M501 830 c-120 -25 -211 -114 -211 -205 l0 -25 296 0 297 0 -6 34
c-14 85 -71 151 -158 181 -54 19 -162 27 -218 15z"/>
<path d="M297 523 c-4 -3 -7 -21 -7 -40 l0 -33 296 0 295 0 -3 38 -3 37 -286
3 c-157 1 -288 -1 -292 -5z"/>
<path d="M290 342 c0 -51 4 -52 295 -52 291 0 295 1 295 52 l0 28 -295 0 -295
0 0 -28z"/>
</g>
</svg>
